<svg
  id="visual"
  viewBox="0 0 900 600"
  width="900"
  height="600"
  xmlns="http://www.w3.org/2000/svg"
  xmlns:xlink="http://www.w3.org/1999/xlink"
  version="1.1"
>
  <path
    d="M0 37L82 37L82 43L164 43L164 97L245 97L245 91L327 91L327 73L409 73L409 43L491 43L491 37L573 37L573 43L655 43L655 73L736 73L736 97L818 97L818 37L900 37L900 85L900 0L900 0L818 0L818 0L736 0L736 0L655 0L655 0L573 0L573 0L491 0L491 0L409 0L409 0L327 0L327 0L245 0L245 0L164 0L164 0L82 0L82 0L0 0Z"
    fill="#a8a89e"
  ></path>
  <path
    d="M0 145L82 145L82 169L164 169L164 289L245 289L245 271L327 271L327 163L409 163L409 121L491 121L491 121L573 121L573 301L655 301L655 325L736 325L736 217L818 217L818 169L900 169L900 211L900 83L900 35L818 35L818 95L736 95L736 71L655 71L655 41L573 41L573 35L491 35L491 41L409 41L409 71L327 71L327 89L245 89L245 95L164 95L164 41L82 41L82 35L0 35Z"
    fill="#758177"
  ></path>
  <path
    d="M0 283L82 283L82 271L164 271L164 379L245 379L245 349L327 349L327 295L409 295L409 259L491 259L491 295L573 295L573 415L655 415L655 415L736 415L736 295L818 295L818 337L900 337L900 289L900 209L900 167L818 167L818 215L736 215L736 323L655 323L655 299L573 299L573 119L491 119L491 119L409 119L409 161L327 161L327 269L245 269L245 287L164 287L164 167L82 167L82 143L0 143Z"
    fill="#445b58"
  ></path>
  <path
    d="M0 397L82 397L82 361L164 361L164 481L245 481L245 433L327 433L327 397L409 397L409 385L491 385L491 373L573 373L573 487L655 487L655 493L736 493L736 391L818 391L818 397L900 397L900 391L900 287L900 335L818 335L818 293L736 293L736 413L655 413L655 413L573 413L573 293L491 293L491 257L409 257L409 293L327 293L327 347L245 347L245 377L164 377L164 269L82 269L82 281L0 281Z"
    fill="#1a363e"
  ></path>
  <path
    d="M0 601L82 601L82 601L164 601L164 601L245 601L245 601L327 601L327 601L409 601L409 601L491 601L491 601L573 601L573 601L655 601L655 601L736 601L736 601L818 601L818 601L900 601L900 601L900 389L900 395L818 395L818 389L736 389L736 491L655 491L655 485L573 485L573 371L491 371L491 383L409 383L409 395L327 395L327 431L245 431L245 479L164 479L164 359L82 359L82 395L0 395Z"
    fill="#001122"
  ></path>
</svg>
